{"title":"Room of Death (La chambre des morts) 2007 DVDRip BigPerm LKRG","uid":6917935,"size":958893797,"categoryP":"video","categoryS":"movies","magnet":"?xt=urn:btih:020e673963e2f4718b43e2949248209593c7203c&amp;dn=Room+of+Death+%28La+chambre+des+morts%29+2007+DVDRip+BigPerm+LKRG&amp;tr=udp%3A%2F%2Ftracker.openbittorrent.com%3A80&amp;tr=udp%3A%2F%2Fopen.demonii.com%3A1337&amp;tr=udp%3A%2F%2Ftracker.coppersurfer.tk%3A6969&amp;tr=udp%3A%2F%2Fexodus.desync.com%3A6969","seeders":5,"leechers":0,"uploader":".BONE.","files":2,"time":1325098425,"description":"\nPLOT\n\nWhile on a joyride with the headlights turned off, two men hit and kill another man carrying a\nsatchel full of money. The two men decide to take the money and throw the body into a pond and bury the money in a\ncoal hill. The next morning the police discover the body of a kidnapped 12-year blind girl, Melody, in a warehouse near\nthe site of the hit-and-run. They determine that the kidnapper saw the girl's father bringing the ransom to him and\nalso witnessed the hit-and-run and the men stealing the ransom.\n &lt;a href=&quot;\nhttp://www.imdb.com/title/tt0990361/&quot; rel=&quot;nofollow&quot; target=&quot;_NEW&quot;&gt;\nhttp://www.imdb.com/title/tt0990361/&lt;/a&gt;\n\nEncoded By .......: BigPerm\nRuntime ..........: 1h 57mn\nFile Size ........: 914 MB\nResolution .......: 704 x 304\nIMDb URL .........: http://www.imdb.com/title/tt0990361/\nGenre ............: Crime,Mystery,Thriller\nLanguage .........: French\nSubtitles ........: English\nVideo\nID : 0\nFormat : MPEG-4 Visual\nFormat profile : Advanced Simple@L5\nFormat settings, BVOP : Yes\nFormat settings, QPel : No\nFormat settings, GMC : No warppoints\nFormat settings, Matrix : Default (H.263)\nMuxing mode : Packed bitstream\nCodec ID : XVID\nCodec ID/Hint : XviD\nDuration : 1h 57mn\nBit rate : 852 Kbps\nWidth : 704 pixels\nHeight : 304 pixels\nDisplay aspect ratio : 2.35:1\nFrame rate : 29.970 fps\nColor space : YUV\nChroma subsampling : 4:2:0\nBit depth : 8 bits\nScan type : Progressive\nCompression mode : Lossy\nBits/(Pixel*Frame) : 0.133\nStream size : 716 MiB (78%)\nWriting library : XviD 1.2.1 (UTC 2008-12-04)\nAudio\nID : 1\nFormat : AC-3\nFormat/Info : Audio Coding 3\nMode extension : CM (complete main)\nCodec ID : 2000\nDuration : 1h 57mn\nBit rate mode : Constant\nBit rate : 224 Kbps\nChannel(s) : 2 channels\nChannel positions : Front: L R\nSampling rate : 48.0 KHz\nBit depth : 16 bits\nCompression mode : Lossy\nStream size : 188 MiB (21%)\nAlignment : Split accross interleaves\nInterleave, duration : 33 ms (1.00 video frame)\nInterleave, preload duration : 500 ms\n &lt;a href=&quot;\nhttp://www.shotpix.com/images/05656345215908588029.png&quot; rel=&quot;nofollow&quot; target=&quot;_NEW&quot;&gt;\nhttp://www.shotpix.com/images/05656345215908588029.png&lt;/a&gt;\n &lt;a href=&quot;\nhttp://www.shotpix.com/images/83534716747783543606.png&quot; rel=&quot;nofollow&quot; target=&quot;_NEW&quot;&gt;\nhttp://www.shotpix.com/images/83534716747783543606.png&lt;/a&gt;\n &lt;a href=&quot;\nhttp://www.shotpix.com/images/99278057994757546521.png&quot; rel=&quot;nofollow&quot; target=&quot;_NEW&quot;&gt;\nhttp://www.shotpix.com/images/99278057994757546521.png&lt;/a&gt;\n &lt;a href=&quot;\nhttp://www.shotpix.com/images/35519044715278971988.png&quot; rel=&quot;nofollow&quot; target=&quot;_NEW&quot;&gt;\nhttp://www.shotpix.com/images/35519044715278971988.png&lt;/a&gt;\n &lt;a href=&quot;\nhttp://www.shotpix.com/images/50145698107646382714.png&quot; rel=&quot;nofollow&quot; target=&quot;_NEW&quot;&gt;\nhttp://www.shotpix.com/images/50145698107646382714.png&lt;/a&gt;","torrent":{"xt":"urn:btih:020e673963e2f4718b43e2949248209593c7203c","amp;dn":"Room+of+Death+%28La+chambre+des+morts%29+2007+DVDRip+BigPerm+LKRG","amp;tr":["udp%3A%2F%2Ftracker.openbittorrent.com%3A80","udp%3A%2F%2Fopen.demonii.com%3A1337","udp%3A%2F%2Ftracker.coppersurfer.tk%3A6969","udp%3A%2F%2Fexodus.desync.com%3A6969"],"infoHash":"020e673963e2f4718b43e2949248209593c7203c","infoHashBuffer":{"type":"Buffer","data":[2,14,103,57,99,226,244,113,139,67,226,148,146,72,32,149,147,199,32,60]},"announce":[],"urlList":[]}}